<svg width="64" height="32" viewBox="0 0 64 32" fill="none" xmlns="http://www.w3.org/2000/svg">
<g clip-path="url(#clip0_3_9025)">
<path d="M46.0789 16.926C49.4462 14.992 52.8044 13.0423 56.1832 11.1285C59.3902 9.31125 63.1632 10.987 63.8904 14.523C64.3112 16.5685 63.3979 18.7783 61.5512 19.8545C55.4967 23.3828 49.4334 26.897 43.3399 30.3575C41.4539 31.4285 39.5112 31.2315 37.7924 29.919C36.0464 28.5865 35.4962 26.7485 35.9057 24.6093C36.3732 22.9808 37.4432 21.892 38.9024 21.0775C41.3149 19.731 43.6887 18.3135 46.0789 16.926Z" fill="#FABC05"/>
<path d="M48.5508 15.5197C45.1921 13.5707 41.8248 11.637 38.4778 9.66824C35.3006 7.79924 34.8656 3.69374 37.5641 1.29574C39.1251 -0.0910111 41.4953 -0.405261 43.3508 0.655989C49.4338 4.13524 55.5088 7.62924 61.5523 11.176C63.4228 12.2737 64.2233 14.055 63.9466 16.1997C63.6653 18.3777 62.3491 19.7732 60.2916 20.4885C58.6473 20.898 57.1696 20.5155 55.7346 19.659C53.3621 18.2427 50.9476 16.8957 48.5508 15.5197Z" fill="#109D58"/>
<path d="M17.938 14.1408C15.7827 15.3653 13.6262 16.5875 11.473 17.8158C10.2137 18.5343 8.96795 19.2773 7.7022 19.9838C5.15145 21.4075 2.12095 20.573 0.674703 18.0653C-0.705547 15.6723 0.0877025 12.5698 2.5442 11.1358C8.55045 7.63001 14.5722 4.14976 20.6157 0.708256C22.4692 -0.346994 24.3922 -0.214244 26.1062 1.04751C27.9152 2.37926 28.5075 4.25326 28.1012 6.45001C27.8492 6.98176 27.6987 7.60501 27.3212 8.02376C26.7077 8.70501 26.0102 9.35726 25.2337 9.83626C22.8307 11.318 20.3737 12.7125 17.938 14.1408Z" fill="#E94436"/>
<path d="M15.4665 15.5142C17.6048 16.7682 19.7415 18.025 21.8818 19.2755C23.1335 20.007 24.3998 20.7142 25.6445 21.457C28.153 22.9545 28.9458 25.996 27.497 28.5022C26.1145 30.8942 23.0313 31.7587 20.561 30.348C14.5218 26.8992 8.49701 23.4247 2.49501 19.9115C0.654263 18.834 -0.192237 17.1022 0.0435129 14.987C0.292263 12.7542 1.61901 11.3045 3.72476 10.5577C4.31101 10.5105 4.92601 10.329 5.47751 10.4465C6.37426 10.6375 7.28801 10.9152 8.09101 11.3482C10.5758 12.6882 13.0118 14.1187 15.4665 15.5142Z" fill="#4385F3"/>
</g>
<defs>
<clipPath id="clip0_3_9025">
<rect width="64" height="31.25" fill="white"/>
</clipPath>
</defs>
</svg>
